<svg xmlns="http://www.w3.org/2000/svg" viewBox="0 0 64 64" width="64" height="64">
  <!-- Dark background matching site theme -->
  <rect x="0" y="0" width="64" height="64" rx="12" fill="#0d0d0d"/>
  <!-- Subtle gold inner ring -->
  <rect x="1.5" y="1.5" width="61" height="61" rx="11" fill="none" stroke="#C9A84C" stroke-width="0.8" opacity="0.4"/>
  <!-- UPM diagonal stripes in gold -->
  <rect x="42" y="4" width="5" height="32" rx="2.5" fill="#C9A84C" transform="rotate(-18, 44, 20)" opacity="0.95"/>
  <rect x="50" y="4" width="5" height="36" rx="2.5" fill="#C9A84C" transform="rotate(-18, 52, 22)" opacity="0.75"/>
  <rect x="58" y="4" width="5" height="40" rx="2.5" fill="#C9A84C" transform="rotate(-18, 60, 24)" opacity="0.55"/>
  <!-- UP text in gold -->
  <text x="4" y="38" font-family="Georgia, serif" font-weight="700" font-size="26" fill="#C9A84C" letter-spacing="-0.5">UP</text>
  <!-- Calendar icon in white/gold -->
  <rect x="4" y="42" width="30" height="19" rx="3" fill="none" stroke="#C9A84C" stroke-width="1" opacity="0.6"/>
  <rect x="4" y="42" width="30" height="7" rx="3" fill="#C9A84C" opacity="0.25"/>
  <rect x="11" y="38" width="3" height="8" rx="1.5" fill="#C9A84C" opacity="0.8"/>
  <rect x="19" y="38" width="3" height="8" rx="1.5" fill="#C9A84C" opacity="0.8"/>
  <rect x="27" y="38" width="3" height="8" rx="1.5" fill="#C9A84C" opacity="0.8"/>
  <circle cx="10" cy="54" r="2" fill="#C9A84C" opacity="0.7"/>
  <circle cx="19" cy="54" r="2" fill="#C9A84C" opacity="0.7"/>
  <circle cx="28" cy="54" r="2" fill="#C9A84C" opacity="0.7"/>
  <!-- Gold star -->
  <polygon points="50,42 51.5,46.5 56.5,46.5 52.5,49.5 54,54 50,51 46,54 47.5,49.5 43.5,46.5 48.5,46.5" fill="#C9A84C" opacity="0.9"/>
</svg>
